<!DOCTYPE svg PUBLIC "-//W3C//DTD SVG 1.1//EN" "http://www.w3.org/Graphics/SVG/1.1/DTD/svg11.dtd"><svg viewBox="0 0 2060 72" version="1.1" xmlns="http://www.w3.org/2000/svg" xmlns:xlink="http://www.w3.org/1999/xlink" xml:space="preserve" xmlns:serif="http://www.serif.com/" style="fill-rule:evenodd;clip-rule:evenodd;stroke-miterlimit:10;"><rect id="Page-2" serif:id="Page 2" x="0" y="0" width="2059.76" height="71.548" style="fill:none;"/><clipPath id="_clip1"><rect x="0" y="0" width="2059.76" height="71.548"/></clipPath><g clip-path="url(#_clip1)"><g id="Layer-2" serif:id="Layer 2"></g><g id="Layer-1" serif:id="Layer 1"><path d="M1650.88,36.189c-3.355,-2.508 -8.24,-5.29 -14.375,-5.75c-5.95,-0.446 -8.162,1.662 -12.218,0c-4.996,-2.046 -4.886,-6.575 -10.062,-12.218c-4.343,-4.734 -10.207,-7.857 -15.153,-9.008c-5.392,-1.255 -12.683,2.126 -28.067,6.171c-9.316,2.45 -13.873,4.084 -21.512,4.114c-6.447,0.025 -6.826,-1.123 -17.717,-2.4c-5.452,-0.639 -15.206,-1.783 -26.574,-1.028c-10.981,0.728 -11.832,2.455 -21.512,2.4c-6.748,-0.039 -7.802,-0.887 -16.452,-1.372c-9.587,-0.537 -10.281,0.393 -21.511,0.343c-14.852,-0.066 -18.035,-1.713 -31.637,-1.371c-7.92,0.199 -6.814,0.781 -14.553,1.028c-13.81,0.442 -20.108,-1.169 -31.636,-1.714c-10.485,-0.496 -9.173,0.652 -29.738,1.371c-28.925,1.013 -30.194,-1.305 -47.454,0.686c-8.679,1.001 -13.065,2.13 -22.145,2.057c-5.283,-0.042 -13.525,-0.503 -20.247,-1.028c-5.793,-0.453 -6.472,-0.643 -9.491,-0.686c-5.915,-0.084 -9.263,0.559 -17.717,1.714c-11.895,1.626 -17.916,2.43 -21.512,2.057c-7.345,-0.762 -6.882,-2.819 -14.553,-3.771c-6.805,-0.845 -10.017,0.42 -22.144,1.371c-10.07,0.79 -9.252,0.027 -18.983,0.686c-21.925,1.484 -25.047,5.285 -36.697,3.771c-6.278,-0.816 -8.974,-2.387 -15.819,-2.057c-5.199,0.251 -6.021,1.272 -12.654,2.057c-3.215,0.381 -10.62,1.258 -18.349,0c-8.433,-1.372 -8.614,-3.88 -17.083,-4.799c-2.246,-0.245 -2.405,-0.087 -12.022,0c-10.612,0.095 -10.807,-0.094 -17.084,0c-13.407,0.198 -12.907,1.062 -22.778,1.028c-10.662,-0.037 -11.212,-1.046 -19.614,-0.686c-8.172,0.35 -14.392,1.593 -18.349,2.4c-14.261,2.91 -17.799,6.149 -24.676,5.143c-4.491,-0.657 -5.096,-2.348 -9.492,-2.4c-4.949,-0.059 -10.056,2.584 -12.021,3.771" style="fill:none;fill-rule:nonzero;stroke:#777;stroke-width:1.5px;"/><path d="M1487.12,18.403c-16.552,1.698 -24.819,3.787 -29.32,5.472c-1.244,0.465 -4.474,1.751 -9.075,2.672c-4.418,0.885 -5.117,0.436 -9.752,1.223c-5.624,0.955 -6.521,1.944 -12.041,3.083c-3.624,0.747 -5.101,0.291 -11.01,1.253c-10.113,1.646 -16.485,3.768 -26.328,2.372c-4.838,-0.686 -6.069,-1.592 -10.842,-2.372c-10.798,-1.765 -16.319,1.2 -26.716,1.845c-12.878,0.798 -11.7,-2.879 -28.652,-3.426c-13.34,-0.431 -25.265,1.484 -34.074,2.899c-11.767,1.89 -11.454,2.77 -17.422,2.899c-10.882,0.236 -13.231,-2.66 -27.492,-2.899c-7.177,-0.121 -8.264,0.584 -14.713,0c-7.915,-0.718 -9.495,-2.072 -14.713,-1.582c-6.037,0.568 -6.798,2.651 -12.778,3.163c-5.233,0.448 -8.557,-0.813 -12.389,-1.581c-9.256,-1.856 -13.067,0.848 -29.039,2.372c-16.329,1.558 -30.381,0.453 -35.235,0c-10.352,-0.967 -12.495,-2.112 -21.296,-2.109c-7.422,0.003 -11.88,0.819 -22.457,2.372c-14.702,2.159 -23.751,3.489 -32.136,4.217c-17.948,1.559 -14.994,-1.186 -37.558,0c-10.304,0.542 -30.535,2.145 -38.719,0.527c-0.806,-0.159 -3.397,-0.726 -6.97,-0.791c-3.79,-0.068 -4.909,0.497 -7.743,0.528c-5.031,0.053 -6.648,-1.672 -11.616,-2.636c-4.803,-0.932 -7.995,-0.232 -13.552,0.264c-16.905,1.508 -19.756,-2.077 -34.847,-0.264c-7.452,0.895 -6.091,1.689 -15.488,3.163c-12.156,1.906 -21.867,1.742 -29.426,1.581c-21.808,-0.466 -34.42,-3.892 -42.978,0.791c-0.595,0.325 -1.254,0.735 -2.313,1.327c-0,0 -0.969,0.536 -1.947,1.044c-5.158,2.682 -10.248,4.637 -15.1,6.062" style="fill:none;fill-rule:nonzero;stroke:#777;stroke-width:1.5px;"/><path d="M738,51.032c-1.769,-0.914 -4.672,-2.197 -8.547,-2.917c-5.859,-1.088 -8.03,0.211 -12.993,-0.925c-5.779,-1.324 -4.946,-3.567 -10.421,-4.947c-6.515,-1.643 -9.259,1.141 -15.779,-0.511c-5.03,-1.275 -4.728,-3.269 -9.239,-4.888c-7.296,-2.619 -11.417,1.404 -23.786,1.578c-10.303,0.145 -11.397,-2.59 -28.254,-3.901c-3.722,-0.289 -3.811,-0.167 -14.99,-0.472c-24.758,-0.675 -37.137,-1.013 -46.889,-2.618c-6.331,-1.043 -8.712,-1.818 -14.514,-2.108c-8.215,-0.411 -10.338,0.798 -21.013,1.44c-3.793,0.228 -10.744,0.116 -24.492,-0.117c-14.877,-0.252 -13.069,-0.225 -18.899,-0.39c-39.771,-1.13 -52.011,-4.324 -69.438,-1.963c-6.087,0.824 -12.225,1.106 -18.269,2.385c-4.505,0.953 -8.459,2.081 -14.142,1.613c-2.05,-0.169 -3.291,-0.461 -6.468,-0.65c-5.095,-0.304 -8.847,0.032 -10.007,0.116c-8.288,0.599 -12.273,-1.933 -23.52,-2.626c-9.167,-0.565 -16.49,-1.017 -25.333,2.466c-5.586,2.201 -7.388,4.243 -14.182,5.961c-5.658,1.432 -13.559,2.331 -13.559,2.331c-5.537,-0.371 -9.606,-0.148 -12.363,0.143c-1.103,0.117 -3.151,0.366 -5.886,0.068c-2.955,-0.321 -5.065,-1.102 -5.873,-1.381c-4.693,-1.617 -9.527,-1.459 -15.292,-1.272c-8.73,0.284 -17.091,2.372 -17.091,2.372c-0.001,-0 -2.994,0.034 -7.653,0.088" style="fill:none;fill-rule:nonzero;stroke:#777;stroke-width:1.5px;"/><path d="M983.779,72.758c-0.195,-1.024 -6.875,0.064 -17.216,-2.279c-3.794,-0.86 -6.221,-1.761 -11.19,-2.279c-3.073,-0.321 -3.896,-0.159 -7.747,-0.326c-7.925,-0.342 -8.499,-1.2 -15.495,-1.627c-6.79,-0.415 -6.199,0.397 -14.633,-0c-7.532,-0.355 -7.593,-0.983 -11.621,-0.652c-4.892,0.404 -6.841,1.498 -11.191,0.977c-3.122,-0.374 -6.559,-1.47 -6.455,-2.278c0.159,-1.241 8.623,-1.514 8.608,-1.628c-0.017,-0.122 -9.632,0.943 -19.799,0.976c-11.311,0.038 -13.442,-1.234 -26.685,-1.627c-7.131,-0.212 -8.71,0.091 -20.659,0.325c-6.707,0.132 -10.282,-0.024 -17.896,-0.061c-5.541,-0.027 -6.708,0.021 -9.954,0.047c0,-0 -1.825,0.013 -3.569,0.014c-5.606,0.005 -24.563,-3.252 -31.472,-4.303c-12.409,-1.887 -18.048,-0.301 -19.147,-3.264c-0.799,-2.154 1.139,-5.527 3.618,-6.795c3.426,-1.752 5.839,1.567 11.823,0.442c1.876,-0.353 1.464,-0.647 6.794,-2.383c0.286,-0.093 4.494,-1.459 6.971,-2.029c2.85,-0.657 7.722,-1.254 14.647,0.353" style="fill:none;fill-rule:nonzero;stroke:#777;stroke-width:1.5px;"/><path d="M1031.37,67.823c-8.21,0.473 -15.24,0.58 -20.691,0.559c-13.903,-0.052 -20.854,-0.078 -27.046,-1.23c-6.74,-1.253 -10.871,-2.874 -17.587,-2.347c-1.797,0.141 -4.164,0.465 -7.686,0.224c-3.97,-0.273 -5.426,-0.993 -9.31,-1.677c-2.409,-0.425 -3.104,-0.369 -12.415,-0.783c-6.754,-0.3 -10.131,-0.45 -13.597,-0.671c-7.239,-0.461 -7.962,-0.73 -14.631,-1.117c-5.368,-0.312 -9.612,-0.411 -11.676,-0.448c-9.153,-0.161 -11.642,0.268 -19.213,0.224c-7.4,-0.043 -8.758,-0.475 -16.405,-0.782c-11.715,-0.472 -14.077,0.319 -27.785,0.446c-14.002,0.131 -12.175,-0.688 -29.854,-0.782c-5.013,-0.027 -4.438,0.09 -5.916,0.004c-4.376,-0.258 -6.115,-1.023 -12.234,-2.343c-2.621,-0.565 -5.688,-1.1 -11.822,-2.171c-6.32,-1.103 -9.983,-1.643 -9.96,-2.247c0.021,-0.535 2.907,-0.184 6.703,-1.975c2.611,-1.232 3.002,-2.227 5.066,-3.257c1.766,-0.88 4.58,-1.699 8.928,-0.967" style="fill:none;fill-rule:nonzero;stroke:#777;stroke-width:1.5px;"/><path d="M1729.65,66.827c-1.634,-2.555 -4.611,-6.553 -9.461,-9.799c-9.712,-6.499 -15.746,-2.496 -39.87,-6.082c-11.575,-1.72 -15.087,-3.37 -21.963,-1.689c-4.137,1.011 -7.16,2.659 -13.852,3.716c-4.793,0.758 -8.621,0.763 -12.165,0.676c-13.264,-0.324 -24.489,-1.978 -33.267,-3.208c-13.69,-1.916 -20.535,-2.875 -23.71,-3.113c-13.479,-1.009 -23.94,-1.389 -36.959,0.958c-17.139,3.09 -24.005,8.571 -34.283,5.029c-2.111,-0.727 -5.512,-2.23 -10.942,-3.113c-1.9,-0.309 -7.306,-1.072 -14.589,-0.239c-6.05,0.691 -6.945,1.746 -15.075,3.592c-7.899,1.793 -12.089,2.743 -17.507,2.634c-8.102,-0.164 -8.611,-2.489 -20.667,-4.071c-5.428,-0.712 -7.271,-0.496 -10.768,-0.754c0,0 -1.753,-0.135 -4.064,-0.444c-6.734,-0.899 -17.015,-4.153 -17.506,-4.31" style="fill:none;fill-rule:nonzero;stroke:#777;stroke-width:1.5px;"/><path d="M1130.69,60.737c-9.429,2.138 -17.744,0.911 -17.809,1.729c-0.042,0.531 3.458,1.165 5.413,1.441c7.435,1.05 9.946,-0.613 19.379,-0.432c3.362,0.064 5.066,0.314 5.238,-0.145c0.263,-0.704 -3.235,-2.676 -7.159,-3.026c-2.356,-0.209 -4.166,0.23 -5.062,0.433Z" style="fill:none;fill-rule:nonzero;stroke:#777;stroke-width:1.5px;"/><path d="M1174.57,53.036c2.364,1.13 6.774,0.802 7.158,0.095c0.283,-0.522 -1.651,-1.218 -1.746,-1.252c-2.454,-0.866 -6.133,-0.47 -6.46,0.194c-0.183,0.373 0.712,0.801 1.048,0.962Z" style="fill:none;fill-rule:nonzero;stroke:#777;stroke-width:1.5px;"/><path d="M1191.27,60.222c3.001,-0.171 6.311,-1.204 6.091,-1.848c-0.424,-1.239 -14.098,-1.504 -14.619,-0.336c-0.315,0.705 3.924,2.447 8.528,2.184Z" style="fill:none;fill-rule:nonzero;stroke:#777;stroke-width:1.5px;"/><path d="M1261.5,58.583c-7.365,0.226 -17.676,0.542 -26.05,-0.612c-0.835,-0.115 -2.727,-0.393 -4.258,-0.1c-2.715,0.521 -3.495,2.688 -1.009,3.559c1.932,0.677 4.539,0.114 9.596,0.356c5.794,0.276 8.186,1.292 12.123,1.957c6.68,1.128 11.128,0.116 23.236,-0.356c18.324,-0.715 18.51,1.198 36.874,0.356c8.299,-0.381 10.609,-0.879 20.204,-1.068c8.151,-0.16 15.509,0.022 15.658,-0.356c0.193,-0.485 -11.767,-1.223 -11.617,-2.134c0.097,-0.588 5.097,-0.438 8.082,-1.78c2.896,-1.302 2.704,-3.478 0.505,-3.914c-1.78,-0.353 -3.724,0.66 -10.103,1.245c-1.762,0.162 -7.339,0.673 -8.587,0c-1.376,-0.741 3.625,-2.319 2.526,-2.847c-1.109,-0.533 -7.251,0.57 -12.123,1.246c-15.244,2.114 -19.409,0.23 -37.378,2.135c-11.742,1.245 -10.33,2.087 -17.679,2.313Z" style="fill:none;fill-rule:nonzero;stroke:#777;stroke-width:1.5px;"/><path d="M434.174,58.421c-6.972,-0.976 -8.878,1.84 -18.056,1.762c-6.589,-0.056 -15.375,-0.954 -15.414,-2.202c0,-0.016 0.001,-0.032 0.005,-0.049c0.357,-1.401 7.963,-1.671 15.409,-3.474c5.961,-1.445 8.482,-3.09 13.886,-2.664c1.622,0.127 1.205,0.261 3.289,0.461c7.611,0.735 11.287,-1.225 13.322,1.049c0.145,0.162 0.95,1.06 0.77,2.034c-0.485,2.635 -7.689,3.206 -8.32,3.251c-2.504,0.18 -4.395,-0.099 -4.891,-0.168Z" style="fill:none;fill-rule:nonzero;stroke:#777;stroke-width:1.5px;"/><path d="M391.398,51.415c-0.39,-1.825 -8.577,-3.208 -11.33,-2.05c-2.451,1.031 -1.415,4.423 2.747,5.046c3.876,0.579 8.907,-1.476 8.583,-2.996Z" style="fill:none;fill-rule:nonzero;stroke:#777;stroke-width:1.5px;"/><path d="M341.239,55.955c-1.294,-0.318 -8.862,-2.148 -14.864,-2.05c-1.993,0.032 -3.328,0.054 -5.125,0.512c-2.222,0.567 -2.904,1.228 -4.614,1.367c-2.284,0.186 -4.034,-0.755 -4.954,-1.196c-4.938,-2.365 -11.316,-2.482 -15.718,-2.563c-4.159,-0.076 -10.621,-0.194 -14.352,1.88c-0.48,0.267 -1.846,1.088 -3.759,1.196c-1.619,0.091 -2.458,-0.394 -3.929,-0.684c-2.57,-0.506 -3.88,0.21 -6.493,0.513c-2.81,0.326 -4.296,-0.154 -8.542,-0.854c-7.731,-1.275 -7.359,-0.433 -16.06,-1.709c-5.138,-0.753 -8.964,-1.588 -12.643,-2.392c-6.593,-1.439 -10.398,-0.5 -13.668,-3.417c-1.288,-1.148 -1.244,-1.668 -3.075,-3.246c-1.061,-0.914 -3.529,-2.853 -7.689,-4.271c-3.957,-1.349 -6.35,-1.171 -12.984,-1.538c-8.496,-0.469 -7.946,-0.948 -12.302,-1.025c-8.56,-0.151 -11.234,3.723 -18.623,2.563c-0.667,-0.105 -2.153,-0.412 -5.125,-1.025c-4.664,-0.963 -7.967,-1.727 -9.397,-2.051c-6.57,-1.487 -10.722,-2.427 -15.035,-2.904c-6.646,-0.736 -6.491,0.422 -21.868,0.684c-5.808,0.098 -8.712,0.148 -12.131,0c-5.767,-0.25 -8.801,-0.744 -14.351,-0.342c-2.966,0.215 -3.581,0.463 -6.834,0.854c-6.797,0.818 -9.663,0.402 -18.111,0.512c-9.156,0.12 -13.735,0.18 -18.964,1.026c-7.905,1.278 -9.41,2.711 -14.864,2.221c-5.53,-0.497 -5.835,-2.136 -11.277,-2.051c-2.598,0.041 -5.282,0.458 -11.275,0.513c-1.059,0.01 -1.932,0.005 -2.514,0" style="fill:none;fill-rule:nonzero;stroke:#777;stroke-width:1.5px;"/><path d="M747.483,67.203c-4.21,-0.618 -10.63,-1.373 -18.511,-1.524c-9.512,-0.184 -12.728,0.674 -21.559,0.435c-8.878,-0.24 -15.508,-1.374 -21.341,-2.395c-17.526,-3.069 -16.288,-5.543 -28.076,-7.104c-12.143,-1.607 -12.474,1.148 -34.246,-0c-9.788,-0.516 -14.68,-0.799 -15.158,-0.828c-11.686,-0.7 -14.228,-0.996 -18.806,-0.414c-6.681,0.851 -6.035,2.088 -12.632,2.69c-6.56,0.6 -8.076,-0.544 -14.877,0.414c-4.622,0.651 -3.645,1.141 -9.544,2.069c-5.047,0.796 -8.452,0.861 -9.824,2.69c-0.519,0.692 -0.397,1.17 -0.677,1.799c0,-0 -0.203,0.362 -0.446,0.684c-1.531,2.036 -4.289,2.243 -5.333,2.276" style="fill:none;fill-rule:nonzero;stroke:#777;stroke-width:1.5px;"/><path d="M2058.06,60.93c-8.817,1.317 -16.73,1.183 -20.698,1.101c-0.036,-0.001 -0.066,-0.002 -0.1,-0.003c-2.359,-0.069 -4.095,-0.203 -4.371,-0.224c-1.149,-0.089 -15.171,-0.993 -23.999,-1.165c-0.826,-0.016 -2.933,-0.052 -4.863,-1.376c-0.453,-0.311 -1.898,-1.378 -2.624,-3.335c-0.335,-0.901 -0.767,-2.217 -0.272,-2.921c0.788,-1.123 6.503,1.866 6.842,1.305c0.21,-0.347 -1.341,-2.717 -3.95,-3.46c-3.456,-0.984 -7.317,-0.375 -18.048,1.155c-9.785,1.394 -14.677,2.091 -15.741,2.185c-6.782,0.596 -12.879,0.445 -25.074,0.141c-8.295,-0.207 -11.711,-0.483 -17.693,0c-7.041,0.569 -10.166,1.587 -11.611,2.138c-4.041,1.538 -3.159,2.98 -5.802,3.869c-4.18,1.405 -12.87,-0.494 -22.389,-2.326c-0.972,-0.187 -2.344,-0.464 -4.295,-0.612c-2.9,-0.22 -3.758,0.097 -8.261,0.095c-2.811,0 -4.456,-0.124 -5.883,-0.302c-2.812,-0.352 -3.896,-0.401 -4.077,-0.992c-0.191,-0.619 0.607,-1.636 1.584,-2.133c2.485,-1.264 6.266,0.72 8.208,0.057c1.786,-0.61 1.384,-1.475 4.011,-2.553c1.091,-0.448 2.103,-0.67 3.33,-1.653c0.629,-0.505 2.14,-1.715 1.029,-2.812c-1.018,-1.006 -3.728,-1.417 -5.809,-1.732c-4.353,-0.661 -6.012,-0.07 -8.215,-0.814c-1.96,-0.662 -3.087,-1.954 -2.506,-2.865c0.981,-1.539 6.284,-2.879 11.269,-1.243c1.988,0.653 1.477,0.967 4.318,2.046c1.927,0.732 4.326,1.156 9.017,2.419c1.894,0.509 3.752,1.12 3.752,1.12c0.109,0.036 0.093,0.031 0.139,0.046c2.651,0.875 6.974,0.596 6.974,0.596c4.808,-0.309 5.665,0.798 14.39,1.039c1.419,0.039 2.338,0.036 3.107,0.01c1.651,-0.055 2.861,-0.155 3.076,-0.173c1.728,-0.147 7.208,-0.118 20.754,0.363c0,0 4.872,2.425 8.355,0.899c0.19,-0.083 0.08,-0.047 0.765,-0.39c4.361,-2.183 6.542,-2.598 7.27,-2.72c0.356,-0.06 0.655,-0.098 0.868,-0.122c6.979,-0.885 13.388,-1.073 13.388,-1.073c2.026,-0.06 1.414,-0.072 4.179,-0.063c4.111,0.014 7.338,-0.263 11.981,-0.559c6.468,-0.411 6.431,-0.523 9.608,-0.664c2.534,-0.112 4.658,-0.206 7.245,-0.148c4.591,0.105 7.756,0.745 9.841,0.906c3.961,0.305 9.694,0.604 16.766,0.456c4.14,0.768 6.273,1.317 10.233,1.699c5.506,0.532 10.401,0.368 14.452,-0.037" style="fill:none;fill-rule:nonzero;stroke:#777;stroke-width:1.5px;"/><path d="M2059.76,15.802c-34.484,6.919 -54.446,5.341 -66.524,2.249c-0.001,0 -23.36,-5.982 -38.616,-2.923c-7.341,1.471 -7.844,1.573 -7.844,1.573c-6.725,1.364 -6.82,1.421 -7.843,1.574c-5.382,0.807 -9.746,0.296 -14.179,-0.224c-8.13,-0.955 -8.163,-2.199 -13.576,-2.249c-3.89,-0.036 -3.963,0.606 -11.766,1.574c-6.539,0.811 -11.678,1.004 -15.084,1.124c-4.282,0.151 -5.627,0.049 -15.084,0c-9.903,-0.052 -10.824,0.048 -14.782,0c-13.442,-0.163 -14.264,-1.448 -28.057,-2.023c-5.207,-0.217 -14.963,-0.447 -26.85,0.45c-7.857,0.592 -10.416,1.206 -17.497,2.022c-29.355,3.385 -32.565,-1.732 -48.27,2.699c-0.596,0.168 -0.399,0.121 -24.738,10.116c-1.822,0.749 -5.501,2.26 -9.653,4.947c-3.038,1.965 -5.229,3.847 -6.638,5.171" style="fill:none;fill-rule:nonzero;stroke:#777;stroke-width:1.5px;"/><path d="M1831.34,62.102c-3.297,-0.08 -3.169,-0.288 -5.344,-0.209c-3.898,0.141 -5.777,0.946 -11.568,0.368c-6.448,-0.644 -9.739,-0.83 -11.316,-3.174c-0.899,-1.339 -1.248,-3.357 -0.484,-4.077c1.208,-1.137 4.62,1.504 9.015,1.267c0.343,-0.018 0.97,-0.081 1.896,-0.05c1.906,0.065 3.105,0.492 7.079,0.554c3.249,0.051 6.675,-0.253 8.43,-0.517c9.018,-1.359 12.842,-6.958 16.403,-4.925c1.143,0.652 2.099,1.999 1.836,2.884c-0.433,1.465 -3.949,0.774 -5.367,3.009c-0.849,1.338 0.077,2.109 -0.673,3.302c-1.098,1.745 -4.095,1.709 -9.907,1.568Z" style="fill:none;fill-rule:nonzero;stroke:#777;stroke-width:1.5px;"/><path d="M1849.64,40.445c-0.307,0.086 -0.46,0.129 -0.67,0.179c-0.89,0.21 -3.452,0.701 -6.207,-0.179c-2.109,-0.674 -5.175,-2.421 -4.911,-3.536c0.355,-1.508 6.642,-1.222 10.019,-0.786c2.931,0.378 6.803,1.272 6.779,2.161c-0.022,0.757 -2.868,1.558 -5.01,2.161Z" style="fill:none;fill-rule:nonzero;stroke:#777;stroke-width:1.5px;"/></g></g></svg>