<svg viewBox="0 0 2060 72" style="fill-rule:evenodd;clip-rule:evenodd;stroke-miterlimit:10"><path d="M0 0h2059.76v71.548H0z" style="fill:none"/><clipPath id="a"><path d="M0 0h2059.76v71.548H0z"/></clipPath><g clip-path="url(#a)"><path d="M162.282 39.576c12.917-8.394 24.064-12 31.699-13.723 6.552-1.478 16.975-3.83 30.379-1.854 12.211 1.799 18.842 6.002 30.907 2.967 5.144-1.295 7.029-2.836 11.623-4.822 15.391-6.651 21.483-1.121 51.247-.742 10.24.131 20.362-.386 34.605-1.112 8.402-.429 10.897-.696 17.171-.742 8.681-.063 10.965.398 15.585-.371 7.587-1.263 11.918-4.251 16.907-6.676 9.645-4.688 20.993-4.982 49.101-5.662 21.721-.527 29.679.961 50.168 1.729 20.093.755 54.666-1.566 122.992-6.239C649.606.624 658.53-.111 673.998 0c23.192.166 24.987 1.974 52.987 2.068 15.827.053 20.986-.506 43.59-.261 20.31.22 18.592.698 23.752.261 8.722-.737 22.079-2.815 32.307-.449.577.134 1.948.465 3.98.877 3.303.67 8.232 1.509 14.363 1.969 2.33.174 4.356.235 8.408.355 14.844.443 16.48-.163 23.693.356 7.948.572 6.282 1.331 17.579 2.49 8.626.886 10.767.563 17.58 1.476 7.528 1.009 10.391 2.136 15.286 3.149 13.126 2.715 20.118.311 44.33.711 11.783.194 8.268.733 26.751 1.423 13.119.49 15.801.253 42.037.712 23.363.408 27.033.698 30.573 1.067 6.264.653 8.134 1.14 24.458 3.201 9.779 1.235 9.505 1.114 17.579 2.135 22.152 2.799 22.01 3.401 29.808 3.913 13.766.903 13.555-1.015 28.28-.356 14.985.67 16.028 2.694 31.336 3.557 16.093.907 15.61-1.292 29.808-.355 6.129.403 16.653 2.409 37.451 6.402 13.45 2.583 12.198 2.443 18.344 3.558 3.287.595 15.606 2.804 36.688 5.691 18.143 2.485 27.214 3.728 33.629 4.27 9.984.842 20.013-.282 32.101 4.979a58.203 58.203 0 016.879 3.558" style="fill:none;fill-rule:nonzero;stroke:#777;stroke-width:1.5px"/><path d="M1107.33 20.813a66.872 66.872 0 018.104-3.03c2.049-.62 3.982-1.206 6.594-1.653 6.307-1.077 9.775-.182 13.807-.855 0 0 2.125-.356 4.412-.389.658-.01 1.308.026 1.308.026.876.045 3.053.204 10.667 2.421 4.044 1.177 3.636 1.192 4.946 1.452.933.184 4.586.859 9.739.363 1.811-.175 1.736-.294 6.648-1.211 5.518-1.029 8.277-1.544 10.667-1.694 2.618-.164 4.992-.029 9.739.242 4.666.266 4.904.474 7.575.484 2.931.011 3.893-.233 9.121-.726 1.801-.169 6.48-.606 11.748-.847 1.078-.05 4.135-.114 10.203-.242 7.85-.165 8.743-.165 10.823-.363 5.207-.498 4.825-.999 8.347-1.089 4.224-.11 7.766.534 10.822 1.089 1.537.279 3.456.632 5.874 1.331a46.804 46.804 0 019.329 3.801" style="fill:none;fill-rule:nonzero;stroke:#777;stroke-width:1.5px"/><path d="M1205.74 21.561c8.74 2.144 15.184 1.808 19.479 1.089 4.005-.67 5.709-1.6 10.821-1.937 4.038-.265 5.192.169 12.831.364 1.017.026 5.671.136 10.975 0 5.41-.14 6.409-.406 14.997-.968 12.602-.826 12.384-.381 16.386-1.09 6.642-1.177 7.338-2.427 13.449-3.51 7.032-1.246 12.509-.719 15.923-.484 9.54.656 11.431-.393 36.793-1.452 28.603-1.196 42.905-1.793 61.682-.968 19.437.852 29.425 2.557 42.976-.606 2.825-.659 8.806-2.229 17.933-3.873 2.35-.422 11.33-2.024 19.788-2.784 12.115-1.087 18.737-.049 31.537.606 11.864.606 24.09.243 48.541-.485 15.521-.461 18.851-.865 33.857-1.089 14.97-.223 22.456-.334 27.208.122 14.019 1.344 21.657 4.186 36.329 4.115 1.733-.009 4.446-.063 8.811 0 8.102.115 14.651.525 18.861.846M761.559 25.394c3.396 1.422 2.766 2.941 10.779 8.138 3.659 2.372 7.732 3.92 7.394 4.503-.185.319-1.466-.007-3.834-.044-2.72-.043-4.49.333-6.424.639-1.293.205-1.315.166-10.995.93-15.193 1.198-16.766 1.47-18.479.301-2.848-1.944-1.314-4.191-4.234-6.028-3.568-2.245-8.469-.534-16.939.301-7.301.72-5.702-.35-18.094 0-15.207.431-18.733 2.074-26.178 0-1.724-.479-10.052-2.94-10.009-6.329.021-1.662 2.047-2.862 2.31-3.014 3.955-2.278 10.149-.187 14.629.905 9.431 2.298 8.619-.478 31.182.602 18.577.89 17.073 2.673 25.409 1.809 12.329-1.278 17.2-5.344 23.483-2.713zM628.72 30.032c-.857 2.476 7.141 7.809 15.565 8.215 4.531.219 4.776-1.2 11.892-1.644 7.302-.454 12.727.687 12.942 0 .207-.663-5.062-1.139-8.045-4.655-1.798-2.118-.962-3.217-2.623-4.381-2.13-1.492-4.481-.369-11.543-.137-7.026.231-10.048-.705-15.215.958-2.617.842-2.896 1.422-2.973 1.644zm-17.042-1.562c2.794.219 9.713.762 15.193 5.671 1.578 1.414 4.355 3.902 3.721 5.736-.47 1.359-2.532 1.552-12.093 2.791-8.339 1.08-8.405 1.146-10.077 1.24-5.501.31-8.316-.199-12.868-.465-10.356-.606-19.919.616-24.805 1.241-8.259 1.055-11.642 2.193-14.263-.155-2.396-2.149-3.309-6.456-1.705-8.528 1.757-2.268 5.501-.522 15.193-1.24 1.574-.116.628-.1 8.217-1.085 15.386-1.998 14.716-1.475 17.519-2.325 3.904-1.186 6.177-2.497 11.007-2.881a31.553 31.553 0 014.961 0zm160.059-2.947c-1.189 1.688 5.003 6.228 8.727 8.484 2.047 1.242 3.354 2.035 5.348 2.755 5.094 1.843 9.205 1.242 19.423.661 6.572-.373 9.858-.56 14.075-.55 6.017.013 10.441.41 18.157 1.101 10.197.915 12.42 1.516 18.438 1.323 2.924-.094 5.273-.358 9.853-.881 10.383-1.189 12.567-1.93 18.579-2.645 18.121-2.155 20.339 1.963 32.232-.221 1.823-.335 6.32-1.266 9.711.551 1.86.997 2.364 2.273 3.097 3.086 3.4 3.77 10.936-.672 24.912 0 2.711.13 5.334.416 9.712.22 3.505-.156 5.264-.493 8.445-.881 12.505-1.524 14.601.115 23.787-1.764 2.708-.553 3.824-.962 7.037-1.432 6.409-.939 10.67-.588 10.697-.881.04-.423-8.783-1.255-16.327-1.984-19.24-1.86-16.047-1.688-21.253-2.101-6.232-.494-16.055-1.256-28.854-1.425-11.012-.146-16.518-.22-18.86.33-4.074.956-8.508 2.696-12.527 1.095-1.809-.721-2.113-1.553-4.785-2.417-3.259-1.054-4.058-.221-7.038-1.322-1.711-.633-1.602-.964-5.348-2.755-1.635-.782-2.452-1.172-3.238-1.433-3.446-1.143-6.882-.531-8.163-.33-5.981.937-12.199-.071-18.297 0-8.938.103-9.488-.315-21.817-.552-20.212-.386-30.318-.58-40.535.992-4.526.697-8.881 1.638-15.905 1.984-11.475.565-12.668.551-12.668.551-4.347-.051-6.077-.323-6.615.441zm63.471-7.415c.073 1.469 31.48.982 45.493 1.402 3.223.097 6.445-.258 9.671-.28 2.58-.017 3.844.022 4.12-.49.606-1.129-4.167-3.839-6.448-4.979-1.284-.64-1.925-.962-2.687-1.191-4.065-1.229-8.1.338-11.82 1.402-6.05 1.73-11.118 2.087-14.329 2.314-7.268.511-9.813-.583-17.821.49-2.576.346-6.204.832-6.179 1.332zM588.926 70.653c10.295-.956 45.685-4.234 55.638-5.154C770.57 53.854 787.529 53.116 815.966 53.237c40.039.171 47.765 2.74 119.709 3.504 29.966.317 38.097-.027 61.97.778 44.319 1.496 59.457 4.143 99.153 6.423 33.592 1.93 31.457.535 98.548 2.141 66.361 1.589 99.542 2.382 128.173 4.088 0 0 58.36 3.473 118.5-4.283 6.861-.884 20.764-2.825 21.161-6.228.539-4.627-25.76-9.778-42.321-13.04-5.874-1.157-10.83-2.123-16.569-2.902 0 0-3.148-.419-6.524-.76-14.305-1.451-45.057-1.115-46.366-1.099l-44.297-.491" style="fill:none;fill-rule:nonzero;stroke:#777;stroke-width:1.5px"/><path d="M1325.99 44.09c15.212.833 27.948 1.223 37.352 1.421 16.55.349 22.681.104 33.608 1.369 12.98 1.502 35.352 5.51 35.095 9.471-.147 2.256-7.049 3.669-15.72 5.255-27.846 5.095-51.133 3.754-64.993 3.114-30.189-1.394-14.549.593-78.294-1.168-31.95-.882-38.277-1.447-58.646-1.557-27.094-.145-46.347.699-54.413.973-56.572 1.926-83.15-5.761-170.797-10.12-43.94-2.186-77.471-2.253-118.197-2.336-30.34-.062-67.218-.136-114.268 1.752-27.837 1.116-27.62 1.652-152.961 10.704-40.921 2.956-60.31 4.298-84.537 6.092-10.891.806-21.779 1.636-21.779 1.636l-5.836.447m1115.126-42.97a170.548 170.548 0 0020.856-4.011c14.647-3.77 17.66-6.617 28.879-8.824 11.766-2.313 13.843-.244 28.078-1.604 16.546-1.582 19.225-5.232 31.686-6.819 15.005-1.911 23.863 1.26 37.702 3.61 22.814 3.874 28.935.384 62.571.401 17.16.009 38.447 2.145 81.021 6.418 37.659 3.779 55.796 6.561 83.829 2.808 2.482-.333 12.926-4.219 26.873-5.215 1.02-.073 5.24-.36 10.993-.303 3.422.034 11.767.229 22.448 1.911a159.556 159.556 0 0117.672 3.82M1505.74 44.16c-.214 1.446 9.672 2.707 23.262 8.445 12.416 5.243 12.797 7.834 20.994 9.788 7.485 1.784 10.136.33 23.382-.154 20.471-.749 32.599 2.048 32.843.653.214-1.217-9.266-2.039-24.482-8.548-10.463-4.476-14.923-7.914-24.457-8.854-4.571-.451-3.126.278-11.372-.05-12.583-.5-18.294-2.464-31.161-2.354-4.227.035-8.864.095-9.009 1.074zm64.94-.193c-.28 1.59 9.159 3.964 25.156 10.419a334.146 334.146 0 0112.252 5.229c3.324 1.786 4.522 2.534 5.369 2.971 5.714 2.95 10.571-.432 21.765-1.831 8.624-1.079 11.292.234 26.045-1.456 4.438-.509 7.099-.96 7.186-1.852.142-1.443-6.635-2.359-17.871-6.663-8.785-3.364-17.098-7.574-18.127-8.097-6.909-3.519-7.338-4.277-10.47-5.079-3.058-.785-5.69-.842-17.461 1.063-14.919 2.415-15.639 3.308-23.813 4.076-6.716.631-9.872.313-10.031 1.22zM1534 25.178c6.877-3.211 17.689-7.533 31.497-9.932 13.146-2.283 21.148-1.458 36.32-1.986 20.685-.721 24.135-3.527 43.699-4.54 11.518-.597 20.88-.42 26.703-.204M312.614 21.266c-2.075-2.794-5.53-6.577-10.792-8.939-7.007-3.147-13.342-2.035-20.86-1.252 0 0-3.744.389-29.62.834-19.01.327-21.174-2.784-40.885-3.754-17.979-.886-18.322 1.596-40.885 2.086-32.746.709-32.252-4.515-53.817-2.504-23.381 2.18-27.054 8.596-51.315 10.847-17.082 1.585-31.183-.112-40.051-1.669M.013 35.272c25.807 9.12 46.514 10.461 60.621 10.013 19.12-.609 28.94-4.597 47.283-2.503 19.728 2.25 35.003 9.901 44.658 15.852M1701.23 46.307c.589-.866 3.063-.059 3.406.058 1.421.478 2.129 1.144 4.245 2.894 2.573 2.126 3.872 3.195 4.584 3.477 2.651 1.049 4.727.203 5.034 1.039.229.63-.658 1.897-1.845 2.283-2.371.771-3.57-2.744-8.742-4.51-2.439-.832-4.072-.699-5.568-2.36-.746-.829-1.563-2.22-1.114-2.881zm-32.83-8.168c-1.314 1.628-1.423 4.144-.752 6.091 1.617 4.692 7.187 4.421 16.551 8.95 10.987 5.315 12.914 10.331 19.751 9.8 3.904-.304 8.069-2.312 8.088-4.2.024-2.523-7.377-2.201-15.55-7.713-8.395-5.661-7.625-10.747-15.289-13.604-3.79-1.413-10.236-2.501-12.799.676z" style="fill:none;fill-rule:nonzero;stroke:#777;stroke-width:1.5px"/></g></svg>