<!DOCTYPE svg PUBLIC "-//W3C//DTD SVG 1.1//EN" "http://www.w3.org/Graphics/SVG/1.1/DTD/svg11.dtd"><svg viewBox="0 0 2060 72" version="1.1" xmlns="http://www.w3.org/2000/svg" xmlns:xlink="http://www.w3.org/1999/xlink" xml:space="preserve" xmlns:serif="http://www.serif.com/" style="fill-rule:evenodd;clip-rule:evenodd;stroke-miterlimit:10;"><rect id="Page-3" serif:id="Page 3" x="0" y="0" width="2059.76" height="71.548" style="fill:none;"/><clipPath id="_clip1"><rect x="0" y="0" width="2059.76" height="71.548"/></clipPath><g clip-path="url(#_clip1)"><g id="Layer-2" serif:id="Layer 2"></g><g id="Layer-1" serif:id="Layer 1"><path d="M162.282,39.576c12.917,-8.394 24.064,-12 31.699,-13.723c6.552,-1.478 16.975,-3.83 30.379,-1.854c12.211,1.799 18.842,6.002 30.907,2.967c5.144,-1.295 7.029,-2.836 11.623,-4.822c15.391,-6.651 21.483,-1.121 51.247,-0.742c10.24,0.131 20.362,-0.386 34.605,-1.112c8.402,-0.429 10.897,-0.696 17.171,-0.742c8.681,-0.063 10.965,0.398 15.585,-0.371c7.587,-1.263 11.918,-4.251 16.907,-6.676c9.645,-4.688 20.993,-4.982 49.101,-5.662c21.721,-0.527 29.679,0.961 50.168,1.729c20.093,0.755 54.666,-1.566 122.992,-6.239c24.94,-1.705 33.864,-2.44 49.332,-2.329c23.192,0.166 24.987,1.974 52.987,2.068c15.827,0.053 20.986,-0.506 43.59,-0.261c20.31,0.22 18.592,0.698 23.752,0.261c8.722,-0.737 22.079,-2.815 32.307,-0.449c0.577,0.134 1.948,0.465 3.98,0.877c3.303,0.67 8.232,1.509 14.363,1.969c2.33,0.174 4.356,0.235 8.408,0.355c14.844,0.443 16.48,-0.163 23.693,0.356c7.948,0.572 6.282,1.331 17.579,2.49c8.626,0.886 10.767,0.563 17.58,1.476c7.528,1.009 10.391,2.136 15.286,3.149c13.126,2.715 20.118,0.311 44.33,0.711c11.783,0.194 8.268,0.733 26.751,1.423c13.119,0.49 15.801,0.253 42.037,0.712c23.363,0.408 27.033,0.698 30.573,1.067c6.264,0.653 8.134,1.14 24.458,3.201c9.779,1.235 9.505,1.114 17.579,2.135c22.152,2.799 22.01,3.401 29.808,3.913c13.766,0.903 13.555,-1.015 28.28,-0.356c14.985,0.67 16.028,2.694 31.336,3.557c16.093,0.907 15.61,-1.292 29.808,-0.355c6.129,0.403 16.653,2.409 37.451,6.402c13.45,2.583 12.198,2.443 18.344,3.558c3.287,0.595 15.606,2.804 36.688,5.691c18.143,2.485 27.214,3.728 33.629,4.27c9.984,0.842 20.013,-0.282 32.101,4.979c2.981,1.298 5.33,2.621 6.879,3.558" style="fill:none;fill-rule:nonzero;stroke:#777;stroke-width:1.5px;"/><path d="M1107.33,20.813c1.999,-0.9 4.729,-2.009 8.104,-3.03c2.049,-0.62 3.982,-1.206 6.594,-1.653c6.307,-1.077 9.775,-0.182 13.807,-0.855c-0,-0 2.125,-0.356 4.412,-0.389c0.658,-0.01 1.308,0.026 1.308,0.026c0.876,0.045 3.053,0.204 10.667,2.421c4.044,1.177 3.636,1.192 4.946,1.452c0.933,0.184 4.586,0.859 9.739,0.363c1.811,-0.175 1.736,-0.294 6.648,-1.211c5.518,-1.029 8.277,-1.544 10.667,-1.694c2.618,-0.164 4.992,-0.029 9.739,0.242c4.666,0.266 4.904,0.474 7.575,0.484c2.931,0.011 3.893,-0.233 9.121,-0.726c1.801,-0.169 6.48,-0.606 11.748,-0.847c1.078,-0.05 4.135,-0.114 10.203,-0.242c7.85,-0.165 8.743,-0.165 10.823,-0.363c5.207,-0.498 4.825,-0.999 8.347,-1.089c4.224,-0.11 7.766,0.534 10.822,1.089c1.537,0.279 3.456,0.632 5.874,1.331c4.015,1.16 7.134,2.612 9.329,3.801" style="fill:none;fill-rule:nonzero;stroke:#777;stroke-width:1.5px;"/><path d="M1205.74,21.561c8.74,2.144 15.184,1.808 19.479,1.089c4.005,-0.67 5.709,-1.6 10.821,-1.937c4.038,-0.265 5.192,0.169 12.831,0.364c1.017,0.026 5.671,0.136 10.975,0c5.41,-0.14 6.409,-0.406 14.997,-0.968c12.602,-0.826 12.384,-0.381 16.386,-1.09c6.642,-1.177 7.338,-2.427 13.449,-3.51c7.032,-1.246 12.509,-0.719 15.923,-0.484c9.54,0.656 11.431,-0.393 36.793,-1.452c28.603,-1.196 42.905,-1.793 61.682,-0.968c19.437,0.852 29.425,2.557 42.976,-0.606c2.825,-0.659 8.806,-2.229 17.933,-3.873c2.35,-0.422 11.33,-2.024 19.788,-2.784c12.115,-1.087 18.737,-0.049 31.537,0.606c11.864,0.606 24.09,0.243 48.541,-0.485c15.521,-0.461 18.851,-0.865 33.857,-1.089c14.97,-0.223 22.456,-0.334 27.208,0.122c14.019,1.344 21.657,4.186 36.329,4.115c1.733,-0.009 4.446,-0.063 8.811,0c8.102,0.115 14.651,0.525 18.861,0.846" style="fill:none;fill-rule:nonzero;stroke:#777;stroke-width:1.5px;"/><path d="M761.559,25.394c3.396,1.422 2.766,2.941 10.779,8.138c3.659,2.372 7.732,3.92 7.394,4.503c-0.185,0.319 -1.466,-0.007 -3.834,-0.044c-2.72,-0.043 -4.49,0.333 -6.424,0.639c-1.293,0.205 -1.315,0.166 -10.995,0.93c-15.193,1.198 -16.766,1.47 -18.479,0.301c-2.848,-1.944 -1.314,-4.191 -4.234,-6.028c-3.568,-2.245 -8.469,-0.534 -16.939,0.301c-7.301,0.72 -5.702,-0.35 -18.094,0c-15.207,0.431 -18.733,2.074 -26.178,0c-1.724,-0.479 -10.052,-2.94 -10.009,-6.329c0.021,-1.662 2.047,-2.862 2.31,-3.014c3.955,-2.278 10.149,-0.187 14.629,0.905c9.431,2.298 8.619,-0.478 31.182,0.602c18.577,0.89 17.073,2.673 25.409,1.809c12.329,-1.278 17.2,-5.344 23.483,-2.713Z" style="fill:none;fill-rule:nonzero;stroke:#777;stroke-width:1.5px;"/><path d="M628.72,30.032c-0.857,2.476 7.141,7.809 15.565,8.215c4.531,0.219 4.776,-1.2 11.892,-1.644c7.302,-0.454 12.727,0.687 12.942,-0c0.207,-0.663 -5.062,-1.139 -8.045,-4.655c-1.798,-2.118 -0.962,-3.217 -2.623,-4.381c-2.13,-1.492 -4.481,-0.369 -11.543,-0.137c-7.026,0.231 -10.048,-0.705 -15.215,0.958c-2.617,0.842 -2.896,1.422 -2.973,1.644Z" style="fill:none;fill-rule:nonzero;stroke:#777;stroke-width:1.5px;"/><path d="M611.678,28.47c2.794,0.219 9.713,0.762 15.193,5.671c1.578,1.414 4.355,3.902 3.721,5.736c-0.47,1.359 -2.532,1.552 -12.093,2.791c-8.339,1.08 -8.405,1.146 -10.077,1.24c-5.501,0.31 -8.316,-0.199 -12.868,-0.465c-10.356,-0.606 -19.919,0.616 -24.805,1.241c-8.259,1.055 -11.642,2.193 -14.263,-0.155c-2.396,-2.149 -3.309,-6.456 -1.705,-8.528c1.757,-2.268 5.501,-0.522 15.193,-1.24c1.574,-0.116 0.628,-0.1 8.217,-1.085c15.386,-1.998 14.716,-1.475 17.519,-2.325c3.904,-1.186 6.177,-2.497 11.007,-2.881c1.142,-0.091 2.865,-0.164 4.961,0Z" style="fill:none;fill-rule:nonzero;stroke:#777;stroke-width:1.5px;"/><path d="M771.737,25.523c-1.189,1.688 5.003,6.228 8.727,8.484c2.047,1.242 3.354,2.035 5.348,2.755c5.094,1.843 9.205,1.242 19.423,0.661c6.572,-0.373 9.858,-0.56 14.075,-0.55c6.017,0.013 10.441,0.41 18.157,1.101c10.197,0.915 12.42,1.516 18.438,1.323c2.924,-0.094 5.273,-0.358 9.853,-0.881c10.383,-1.189 12.567,-1.93 18.579,-2.645c18.121,-2.155 20.339,1.963 32.232,-0.221c1.823,-0.335 6.32,-1.266 9.711,0.551c1.86,0.997 2.364,2.273 3.097,3.086c3.4,3.77 10.936,-0.672 24.912,-0c2.711,0.13 5.334,0.416 9.712,0.22c3.505,-0.156 5.264,-0.493 8.445,-0.881c12.505,-1.524 14.601,0.115 23.787,-1.764c2.708,-0.553 3.824,-0.962 7.037,-1.432c6.409,-0.939 10.67,-0.588 10.697,-0.881c0.04,-0.423 -8.783,-1.255 -16.327,-1.984c-19.24,-1.86 -16.047,-1.688 -21.253,-2.101c-6.232,-0.494 -16.055,-1.256 -28.854,-1.425c-11.012,-0.146 -16.518,-0.22 -18.86,0.33c-4.074,0.956 -8.508,2.696 -12.527,1.095c-1.809,-0.721 -2.113,-1.553 -4.785,-2.417c-3.259,-1.054 -4.058,-0.221 -7.038,-1.322c-1.711,-0.633 -1.602,-0.964 -5.348,-2.755c-1.635,-0.782 -2.452,-1.172 -3.238,-1.433c-3.446,-1.143 -6.882,-0.531 -8.163,-0.33c-5.981,0.937 -12.199,-0.071 -18.297,-0c-8.938,0.103 -9.488,-0.315 -21.817,-0.552c-20.212,-0.386 -30.318,-0.58 -40.535,0.992c-4.526,0.697 -8.881,1.638 -15.905,1.984c-11.475,0.565 -12.668,0.551 -12.668,0.551c-4.347,-0.051 -6.077,-0.323 -6.615,0.441Z" style="fill:none;fill-rule:nonzero;stroke:#777;stroke-width:1.5px;"/><path d="M835.208,18.108c0.073,1.469 31.48,0.982 45.493,1.402c3.223,0.097 6.445,-0.258 9.671,-0.28c2.58,-0.017 3.844,0.022 4.12,-0.49c0.606,-1.129 -4.167,-3.839 -6.448,-4.979c-1.284,-0.64 -1.925,-0.962 -2.687,-1.191c-4.065,-1.229 -8.1,0.338 -11.82,1.402c-6.05,1.73 -11.118,2.087 -14.329,2.314c-7.268,0.511 -9.813,-0.583 -17.821,0.49c-2.576,0.346 -6.204,0.832 -6.179,1.332Z" style="fill:none;fill-rule:nonzero;stroke:#777;stroke-width:1.5px;"/><path d="M588.926,70.653c10.295,-0.956 45.685,-4.234 55.638,-5.154c126.006,-11.645 142.965,-12.383 171.402,-12.262c40.039,0.171 47.765,2.74 119.709,3.504c29.966,0.317 38.097,-0.027 61.97,0.778c44.319,1.496 59.457,4.143 99.153,6.423c33.592,1.93 31.457,0.535 98.548,2.141c66.361,1.589 99.542,2.382 128.173,4.088c-0,-0 58.36,3.473 118.5,-4.283c6.861,-0.884 20.764,-2.825 21.161,-6.228c0.539,-4.627 -25.76,-9.778 -42.321,-13.04c-5.874,-1.157 -10.83,-2.123 -16.569,-2.902c-0,-0 -3.148,-0.419 -6.524,-0.76c-14.305,-1.451 -45.057,-1.115 -46.366,-1.099c-14.766,-0.164 -29.532,-0.327 -44.297,-0.491" style="fill:none;fill-rule:nonzero;stroke:#777;stroke-width:1.5px;"/><path d="M1325.99,44.09c15.212,0.833 27.948,1.223 37.352,1.421c16.55,0.349 22.681,0.104 33.608,1.369c12.98,1.502 35.352,5.51 35.095,9.471c-0.147,2.256 -7.049,3.669 -15.72,5.255c-27.846,5.095 -51.133,3.754 -64.993,3.114c-30.189,-1.394 -14.549,0.593 -78.294,-1.168c-31.95,-0.882 -38.277,-1.447 -58.646,-1.557c-27.094,-0.145 -46.347,0.699 -54.413,0.973c-56.572,1.926 -83.15,-5.761 -170.797,-10.12c-43.94,-2.186 -77.471,-2.253 -118.197,-2.336c-30.34,-0.062 -67.218,-0.136 -114.268,1.752c-27.837,1.116 -27.62,1.652 -152.961,10.704c-40.921,2.956 -60.31,4.298 -84.537,6.092c-10.891,0.806 -21.779,1.636 -21.779,1.636c-1.392,0.107 -4.473,0.342 -5.836,0.447" style="fill:none;fill-rule:nonzero;stroke:#777;stroke-width:1.5px;"/><path d="M1606.73,28.173c4.635,-0.593 11.995,-1.729 20.856,-4.011c14.647,-3.77 17.66,-6.617 28.879,-8.824c11.766,-2.313 13.843,-0.244 28.078,-1.604c16.546,-1.582 19.225,-5.232 31.686,-6.819c15.005,-1.911 23.863,1.26 37.702,3.61c22.814,3.874 28.935,0.384 62.571,0.401c17.16,0.009 38.447,2.145 81.021,6.418c37.659,3.779 55.796,6.561 83.829,2.808c2.482,-0.333 12.926,-4.219 26.873,-5.215c1.02,-0.073 5.24,-0.36 10.993,-0.303c3.422,0.034 11.767,0.229 22.448,1.911c4.947,0.778 10.942,1.962 17.672,3.82" style="fill:none;fill-rule:nonzero;stroke:#777;stroke-width:1.5px;"/><path d="M1505.74,44.16c-0.214,1.446 9.672,2.707 23.262,8.445c12.416,5.243 12.797,7.834 20.994,9.788c7.485,1.784 10.136,0.33 23.382,-0.154c20.471,-0.749 32.599,2.048 32.843,0.653c0.214,-1.217 -9.266,-2.039 -24.482,-8.548c-10.463,-4.476 -14.923,-7.914 -24.457,-8.854c-4.571,-0.451 -3.126,0.278 -11.372,-0.05c-12.583,-0.5 -18.294,-2.464 -31.161,-2.354c-4.227,0.035 -8.864,0.095 -9.009,1.074Z" style="fill:none;fill-rule:nonzero;stroke:#777;stroke-width:1.5px;"/><path d="M1570.68,43.967c-0.28,1.59 9.159,3.964 25.156,10.419c5.245,2.117 9.489,3.983 12.252,5.229c3.324,1.786 4.522,2.534 5.369,2.971c5.714,2.95 10.571,-0.432 21.765,-1.831c8.624,-1.079 11.292,0.234 26.045,-1.456c4.438,-0.509 7.099,-0.96 7.186,-1.852c0.142,-1.443 -6.635,-2.359 -17.871,-6.663c-8.785,-3.364 -17.098,-7.574 -18.127,-8.097c-6.909,-3.519 -7.338,-4.277 -10.47,-5.079c-3.058,-0.785 -5.69,-0.842 -17.461,1.063c-14.919,2.415 -15.639,3.308 -23.813,4.076c-6.716,0.631 -9.872,0.313 -10.031,1.22Z" style="fill:none;fill-rule:nonzero;stroke:#777;stroke-width:1.5px;"/><path d="M1534,25.178c6.877,-3.211 17.689,-7.533 31.497,-9.932c13.146,-2.283 21.148,-1.458 36.32,-1.986c20.685,-0.721 24.135,-3.527 43.699,-4.54c11.518,-0.597 20.88,-0.42 26.703,-0.204" style="fill:none;fill-rule:nonzero;stroke:#777;stroke-width:1.5px;"/><path d="M312.614,21.266c-2.075,-2.794 -5.53,-6.577 -10.792,-8.939c-7.007,-3.147 -13.342,-2.035 -20.86,-1.252c0,0 -3.744,0.389 -29.62,0.834c-19.01,0.327 -21.174,-2.784 -40.885,-3.754c-17.979,-0.886 -18.322,1.596 -40.885,2.086c-32.746,0.709 -32.252,-4.515 -53.817,-2.504c-23.381,2.18 -27.054,8.596 -51.315,10.847c-17.082,1.585 -31.183,-0.112 -40.051,-1.669" style="fill:none;fill-rule:nonzero;stroke:#777;stroke-width:1.5px;"/><path d="M0.013,35.272c25.807,9.12 46.514,10.461 60.621,10.013c19.12,-0.609 28.94,-4.597 47.283,-2.503c19.728,2.25 35.003,9.901 44.658,15.852" style="fill:none;fill-rule:nonzero;stroke:#777;stroke-width:1.5px;"/><path d="M1701.23,46.307c0.589,-0.866 3.063,-0.059 3.406,0.058c1.421,0.478 2.129,1.144 4.245,2.894c2.573,2.126 3.872,3.195 4.584,3.477c2.651,1.049 4.727,0.203 5.034,1.039c0.229,0.63 -0.658,1.897 -1.845,2.283c-2.371,0.771 -3.57,-2.744 -8.742,-4.51c-2.439,-0.832 -4.072,-0.699 -5.568,-2.36c-0.746,-0.829 -1.563,-2.22 -1.114,-2.881Z" style="fill:none;fill-rule:nonzero;stroke:#777;stroke-width:1.5px;"/><path d="M1668.4,38.139c-1.314,1.628 -1.423,4.144 -0.752,6.091c1.617,4.692 7.187,4.421 16.551,8.95c10.987,5.315 12.914,10.331 19.751,9.8c3.904,-0.304 8.069,-2.312 8.088,-4.2c0.024,-2.523 -7.377,-2.201 -15.55,-7.713c-8.395,-5.661 -7.625,-10.747 -15.289,-13.604c-3.79,-1.413 -10.236,-2.501 -12.799,0.676Z" style="fill:none;fill-rule:nonzero;stroke:#777;stroke-width:1.5px;"/></g></g></svg>