<svg viewBox="0 0 2060 72" style="fill-rule:evenodd;clip-rule:evenodd;stroke-miterlimit:10"><path d="M0 0h2059.76v71.548H0z" style="fill:none"/><clipPath id="a"><path d="M0 0h2059.76v71.548H0z"/></clipPath><g clip-path="url(#a)"><path d="M1650.88 36.189c-3.355-2.508-8.24-5.29-14.375-5.75-5.95-.446-8.162 1.662-12.218 0-4.996-2.046-4.886-6.575-10.062-12.218-4.343-4.734-10.207-7.857-15.153-9.008-5.392-1.255-12.683 2.126-28.067 6.171-9.316 2.45-13.873 4.084-21.512 4.114-6.447.025-6.826-1.123-17.717-2.4-5.452-.639-15.206-1.783-26.574-1.028-10.981.728-11.832 2.455-21.512 2.4-6.748-.039-7.802-.887-16.452-1.372-9.587-.537-10.281.393-21.511.343-14.852-.066-18.035-1.713-31.637-1.371-7.92.199-6.814.781-14.553 1.028-13.81.442-20.108-1.169-31.636-1.714-10.485-.496-9.173.652-29.738 1.371-28.925 1.013-30.194-1.305-47.454.686-8.679 1.001-13.065 2.13-22.145 2.057-5.283-.042-13.525-.503-20.247-1.028-5.793-.453-6.472-.643-9.491-.686-5.915-.084-9.263.559-17.717 1.714-11.895 1.626-17.916 2.43-21.512 2.057-7.345-.762-6.882-2.819-14.553-3.771-6.805-.845-10.017.42-22.144 1.371-10.07.79-9.252.027-18.983.686-21.925 1.484-25.047 5.285-36.697 3.771-6.278-.816-8.974-2.387-15.819-2.057-5.199.251-6.021 1.272-12.654 2.057-3.215.381-10.62 1.258-18.349 0-8.433-1.372-8.614-3.88-17.083-4.799-2.246-.245-2.405-.087-12.022 0-10.612.095-10.807-.094-17.084 0-13.407.198-12.907 1.062-22.778 1.028-10.662-.037-11.212-1.046-19.614-.686-8.172.35-14.392 1.593-18.349 2.4-14.261 2.91-17.799 6.149-24.676 5.143-4.491-.657-5.096-2.348-9.492-2.4-4.949-.059-10.056 2.584-12.021 3.771" style="fill:none;fill-rule:nonzero;stroke:#777;stroke-width:1.5px"/><path d="M1487.12 18.403c-16.552 1.698-24.819 3.787-29.32 5.472-1.244.465-4.474 1.751-9.075 2.672-4.418.885-5.117.436-9.752 1.223-5.624.955-6.521 1.944-12.041 3.083-3.624.747-5.101.291-11.01 1.253-10.113 1.646-16.485 3.768-26.328 2.372-4.838-.686-6.069-1.592-10.842-2.372-10.798-1.765-16.319 1.2-26.716 1.845-12.878.798-11.7-2.879-28.652-3.426-13.34-.431-25.265 1.484-34.074 2.899-11.767 1.89-11.454 2.77-17.422 2.899-10.882.236-13.231-2.66-27.492-2.899-7.177-.121-8.264.584-14.713 0-7.915-.718-9.495-2.072-14.713-1.582-6.037.568-6.798 2.651-12.778 3.163-5.233.448-8.557-.813-12.389-1.581-9.256-1.856-13.067.848-29.039 2.372-16.329 1.558-30.381.453-35.235 0-10.352-.967-12.495-2.112-21.296-2.109-7.422.003-11.88.819-22.457 2.372-14.702 2.159-23.751 3.489-32.136 4.217-17.948 1.559-14.994-1.186-37.558 0-10.304.542-30.535 2.145-38.719.527-.806-.159-3.397-.726-6.97-.791-3.79-.068-4.909.497-7.743.528-5.031.053-6.648-1.672-11.616-2.636-4.803-.932-7.995-.232-13.552.264-16.905 1.508-19.756-2.077-34.847-.264-7.452.895-6.091 1.689-15.488 3.163-12.156 1.906-21.867 1.742-29.426 1.581-21.808-.466-34.42-3.892-42.978.791-.595.325-1.254.735-2.313 1.327 0 0-.969.536-1.947 1.044a83.947 83.947 0 01-15.1 6.062M738 51.032a30.834 30.834 0 00-8.547-2.917c-5.859-1.088-8.03.211-12.993-.925-5.779-1.324-4.946-3.567-10.421-4.947-6.515-1.643-9.259 1.141-15.779-.511-5.03-1.275-4.728-3.269-9.239-4.888-7.296-2.619-11.417 1.404-23.786 1.578-10.303.145-11.397-2.59-28.254-3.901-3.722-.289-3.811-.167-14.99-.472-24.758-.675-37.137-1.013-46.889-2.618-6.331-1.043-8.712-1.818-14.514-2.108-8.215-.411-10.338.798-21.013 1.44-3.793.228-10.744.116-24.492-.117-14.877-.252-13.069-.225-18.899-.39-39.771-1.13-52.011-4.324-69.438-1.963-6.087.824-12.225 1.106-18.269 2.385-4.505.953-8.459 2.081-14.142 1.613-2.05-.169-3.291-.461-6.468-.65-5.095-.304-8.847.032-10.007.116-8.288.599-12.273-1.933-23.52-2.626-9.167-.565-16.49-1.017-25.333 2.466-5.586 2.201-7.388 4.243-14.182 5.961-5.658 1.432-13.559 2.331-13.559 2.331-5.537-.371-9.606-.148-12.363.143-1.103.117-3.151.366-5.886.068-2.955-.321-5.065-1.102-5.873-1.381-4.693-1.617-9.527-1.459-15.292-1.272-8.73.284-17.091 2.372-17.091 2.372l-7.653.088" style="fill:none;fill-rule:nonzero;stroke:#777;stroke-width:1.5px"/><path d="M983.779 72.758c-.195-1.024-6.875.064-17.216-2.279-3.794-.86-6.221-1.761-11.19-2.279-3.073-.321-3.896-.159-7.747-.326-7.925-.342-8.499-1.2-15.495-1.627-6.79-.415-6.199.397-14.633 0-7.532-.355-7.593-.983-11.621-.652-4.892.404-6.841 1.498-11.191.977-3.122-.374-6.559-1.47-6.455-2.278.159-1.241 8.623-1.514 8.608-1.628-.017-.122-9.632.943-19.799.976-11.311.038-13.442-1.234-26.685-1.627-7.131-.212-8.71.091-20.659.325-6.707.132-10.282-.024-17.896-.061-5.541-.027-6.708.021-9.954.047 0 0-1.825.013-3.569.014-5.606.005-24.563-3.252-31.472-4.303-12.409-1.887-18.048-.301-19.147-3.264-.799-2.154 1.139-5.527 3.618-6.795 3.426-1.752 5.839 1.567 11.823.442 1.876-.353 1.464-.647 6.794-2.383.286-.093 4.494-1.459 6.971-2.029 2.85-.657 7.722-1.254 14.647.353" style="fill:none;fill-rule:nonzero;stroke:#777;stroke-width:1.5px"/><path d="M1031.37 67.823c-8.21.473-15.24.58-20.691.559-13.903-.052-20.854-.078-27.046-1.23-6.74-1.253-10.871-2.874-17.587-2.347-1.797.141-4.164.465-7.686.224-3.97-.273-5.426-.993-9.31-1.677-2.409-.425-3.104-.369-12.415-.783-6.754-.3-10.131-.45-13.597-.671-7.239-.461-7.962-.73-14.631-1.117a293.396 293.396 0 00-11.676-.448c-9.153-.161-11.642.268-19.213.224-7.4-.043-8.758-.475-16.405-.782-11.715-.472-14.077.319-27.785.446-14.002.131-12.175-.688-29.854-.782-5.013-.027-4.438.09-5.916.004-4.376-.258-6.115-1.023-12.234-2.343-2.621-.565-5.688-1.1-11.822-2.171-6.32-1.103-9.983-1.643-9.96-2.247.021-.535 2.907-.184 6.703-1.975 2.611-1.232 3.002-2.227 5.066-3.257 1.766-.88 4.58-1.699 8.928-.967m945.411 20.344c-1.634-2.555-4.611-6.553-9.461-9.799-9.712-6.499-15.746-2.496-39.87-6.082-11.575-1.72-15.087-3.37-21.963-1.689-4.137 1.011-7.16 2.659-13.852 3.716-4.793.758-8.621.763-12.165.676-13.264-.324-24.489-1.978-33.267-3.208-13.69-1.916-20.535-2.875-23.71-3.113-13.479-1.009-23.94-1.389-36.959.958-17.139 3.09-24.005 8.571-34.283 5.029-2.111-.727-5.512-2.23-10.942-3.113-1.9-.309-7.306-1.072-14.589-.239-6.05.691-6.945 1.746-15.075 3.592-7.899 1.793-12.089 2.743-17.507 2.634-8.102-.164-8.611-2.489-20.667-4.071-5.428-.712-7.271-.496-10.768-.754 0 0-1.753-.135-4.064-.444-6.734-.899-17.015-4.153-17.506-4.31M1130.69 60.737c-9.429 2.138-17.744.911-17.809 1.729-.042.531 3.458 1.165 5.413 1.441 7.435 1.05 9.946-.613 19.379-.432 3.362.064 5.066.314 5.238-.145.263-.704-3.235-2.676-7.159-3.026-2.356-.209-4.166.23-5.062.433zm43.88-7.701c2.364 1.13 6.774.802 7.158.095.283-.522-1.651-1.218-1.746-1.252-2.454-.866-6.133-.47-6.46.194-.183.373.712.801 1.048.962zm16.7 7.186c3.001-.171 6.311-1.204 6.091-1.848-.424-1.239-14.098-1.504-14.619-.336-.315.705 3.924 2.447 8.528 2.184zm70.23-1.639c-7.365.226-17.676.542-26.05-.612-.835-.115-2.727-.393-4.258-.1-2.715.521-3.495 2.688-1.009 3.559 1.932.677 4.539.114 9.596.356 5.794.276 8.186 1.292 12.123 1.957 6.68 1.128 11.128.116 23.236-.356 18.324-.715 18.51 1.198 36.874.356 8.299-.381 10.609-.879 20.204-1.068 8.151-.16 15.509.022 15.658-.356.193-.485-11.767-1.223-11.617-2.134.097-.588 5.097-.438 8.082-1.78 2.896-1.302 2.704-3.478.505-3.914-1.78-.353-3.724.66-10.103 1.245-1.762.162-7.339.673-8.587 0-1.376-.741 3.625-2.319 2.526-2.847-1.109-.533-7.251.57-12.123 1.246-15.244 2.114-19.409.23-37.378 2.135-11.742 1.245-10.33 2.087-17.679 2.313zm-827.326-.162c-6.972-.976-8.878 1.84-18.056 1.762-6.589-.056-15.375-.954-15.414-2.202a.21.21 0 01.005-.049c.357-1.401 7.963-1.671 15.409-3.474 5.961-1.445 8.482-3.09 13.886-2.664 1.622.127 1.205.261 3.289.461 7.611.735 11.287-1.225 13.322 1.049.145.162.95 1.06.77 2.034-.485 2.635-7.689 3.206-8.32 3.251-2.504.18-4.395-.099-4.891-.168zm-42.776-7.006c-.39-1.825-8.577-3.208-11.33-2.05-2.451 1.031-1.415 4.423 2.747 5.046 3.876.579 8.907-1.476 8.583-2.996zm-50.159 4.54c-1.294-.318-8.862-2.148-14.864-2.05-1.993.032-3.328.054-5.125.512-2.222.567-2.904 1.228-4.614 1.367-2.284.186-4.034-.755-4.954-1.196-4.938-2.365-11.316-2.482-15.718-2.563-4.159-.076-10.621-.194-14.352 1.88-.48.267-1.846 1.088-3.759 1.196-1.619.091-2.458-.394-3.929-.684-2.57-.506-3.88.21-6.493.513-2.81.326-4.296-.154-8.542-.854-7.731-1.275-7.359-.433-16.06-1.709-5.138-.753-8.964-1.588-12.643-2.392-6.593-1.439-10.398-.5-13.668-3.417-1.288-1.148-1.244-1.668-3.075-3.246-1.061-.914-3.529-2.853-7.689-4.271-3.957-1.349-6.35-1.171-12.984-1.538-8.496-.469-7.946-.948-12.302-1.025-8.56-.151-11.234 3.723-18.623 2.563-.667-.105-2.153-.412-5.125-1.025-4.664-.963-7.967-1.727-9.397-2.051-6.57-1.487-10.722-2.427-15.035-2.904-6.646-.736-6.491.422-21.868.684-5.808.098-8.712.148-12.131 0-5.767-.25-8.801-.744-14.351-.342-2.966.215-3.581.463-6.834.854-6.797.818-9.663.402-18.111.512-9.156.12-13.735.18-18.964 1.026-7.905 1.278-9.41 2.711-14.864 2.221-5.53-.497-5.835-2.136-11.277-2.051-2.598.041-5.282.458-11.275.513-1.059.01-1.932.005-2.514 0m747.384 30.725a146.941 146.941 0 00-18.511-1.524c-9.512-.184-12.728.674-21.559.435-8.878-.24-15.508-1.374-21.341-2.395-17.526-3.069-16.288-5.543-28.076-7.104-12.143-1.607-12.474 1.148-34.246 0-9.788-.516-14.68-.799-15.158-.828-11.686-.7-14.228-.996-18.806-.414-6.681.851-6.035 2.088-12.632 2.69-6.56.6-8.076-.544-14.877.414-4.622.651-3.645 1.141-9.544 2.069-5.047.796-8.452.861-9.824 2.69-.519.692-.397 1.17-.677 1.799 0 0-.203.362-.446.684-1.531 2.036-4.289 2.243-5.333 2.276M2058.06 60.93c-8.817 1.317-16.73 1.183-20.698 1.101l-.1-.003c-2.359-.069-4.095-.203-4.371-.224-1.149-.089-15.171-.993-23.999-1.165-.826-.016-2.933-.052-4.863-1.376-.453-.311-1.898-1.378-2.624-3.335-.335-.901-.767-2.217-.272-2.921.788-1.123 6.503 1.866 6.842 1.305.21-.347-1.341-2.717-3.95-3.46-3.456-.984-7.317-.375-18.048 1.155-9.785 1.394-14.677 2.091-15.741 2.185-6.782.596-12.879.445-25.074.141-8.295-.207-11.711-.483-17.693 0-7.041.569-10.166 1.587-11.611 2.138-4.041 1.538-3.159 2.98-5.802 3.869-4.18 1.405-12.87-.494-22.389-2.326-.972-.187-2.344-.464-4.295-.612-2.9-.22-3.758.097-8.261.095-2.811 0-4.456-.124-5.883-.302-2.812-.352-3.896-.401-4.077-.992-.191-.619.607-1.636 1.584-2.133 2.485-1.264 6.266.72 8.208.057 1.786-.61 1.384-1.475 4.011-2.553 1.091-.448 2.103-.67 3.33-1.653.629-.505 2.14-1.715 1.029-2.812-1.018-1.006-3.728-1.417-5.809-1.732-4.353-.661-6.012-.07-8.215-.814-1.96-.662-3.087-1.954-2.506-2.865.981-1.539 6.284-2.879 11.269-1.243 1.988.653 1.477.967 4.318 2.046 1.927.732 4.326 1.156 9.017 2.419 1.894.509 3.752 1.12 3.752 1.12l.139.046c2.651.875 6.974.596 6.974.596 4.808-.309 5.665.798 14.39 1.039 1.419.039 2.338.036 3.107.01a63.574 63.574 0 003.076-.173c1.728-.147 7.208-.118 20.754.363 0 0 4.872 2.425 8.355.899.19-.083.08-.047.765-.39 4.361-2.183 6.542-2.598 7.27-2.72.356-.06.655-.098.868-.122 6.979-.885 13.388-1.073 13.388-1.073 2.026-.06 1.414-.072 4.179-.063 4.111.014 7.338-.263 11.981-.559 6.468-.411 6.431-.523 9.608-.664 2.534-.112 4.658-.206 7.245-.148 4.591.105 7.756.745 9.841.906 3.961.305 9.694.604 16.766.456 4.14.768 6.273 1.317 10.233 1.699a73.765 73.765 0 0014.452-.037m1.23-30.303c-34.484 6.919-54.446 5.341-66.524 2.249-.001 0-23.36-5.982-38.616-2.923-7.341 1.471-7.844 1.573-7.844 1.573-6.725 1.364-6.82 1.421-7.843 1.574-5.382.807-9.746.296-14.179-.224-8.13-.955-8.163-2.199-13.576-2.249-3.89-.036-3.963.606-11.766 1.574-6.539.811-11.678 1.004-15.084 1.124-4.282.151-5.627.049-15.084 0-9.903-.052-10.824.048-14.782 0-13.442-.163-14.264-1.448-28.057-2.023a231.724 231.724 0 00-26.85.45c-7.857.592-10.416 1.206-17.497 2.022-29.355 3.385-32.565-1.732-48.27 2.699-.596.168-.399.121-24.738 10.116-1.822.749-5.501 2.26-9.653 4.947a46.669 46.669 0 00-6.638 5.171m138.581 20.22c-3.297-.08-3.169-.288-5.344-.209-3.898.141-5.777.946-11.568.368-6.448-.644-9.739-.83-11.316-3.174-.899-1.339-1.248-3.357-.484-4.077 1.208-1.137 4.62 1.504 9.015 1.267.343-.018.97-.081 1.896-.05 1.906.065 3.105.492 7.079.554 3.249.051 6.675-.253 8.43-.517 9.018-1.359 12.842-6.958 16.403-4.925 1.143.652 2.099 1.999 1.836 2.884-.433 1.465-3.949.774-5.367 3.009-.849 1.338.077 2.109-.673 3.302-1.098 1.745-4.095 1.709-9.907 1.568zm18.3-21.657c-.307.086-.46.129-.67.179-.89.21-3.452.701-6.207-.179-2.109-.674-5.175-2.421-4.911-3.536.355-1.508 6.642-1.222 10.019-.786 2.931.378 6.803 1.272 6.779 2.161-.022.757-2.868 1.558-5.01 2.161z" style="fill:none;fill-rule:nonzero;stroke:#777;stroke-width:1.5px"/></g></svg>