<!DOCTYPE svg PUBLIC "-//W3C//DTD SVG 1.1//EN" "http://www.w3.org/Graphics/SVG/1.1/DTD/svg11.dtd"><svg width="100%" height="100%" viewBox="0 0 29 29" version="1.1" xmlns="http://www.w3.org/2000/svg" xmlns:xlink="http://www.w3.org/1999/xlink" xml:space="preserve" xmlns:serif="http://www.serif.com/" style="fill-rule:evenodd;clip-rule:evenodd;stroke-linejoin:round;stroke-miterlimit:2;"><path d="M16.535,28.346l-4.724,0l0,-18.897l-2.362,-0l-0,2.362l-2.362,0l-0,2.362l-2.363,0l0,2.362l-4.724,0l0,-4.724l2.362,0l0,-2.362l2.362,-0l0,-2.362l2.363,-0l-0,-2.363l2.362,0l-0,-2.362l2.362,0l0,-2.362l4.724,0l0,2.362l2.363,0l-0,2.362l2.362,0l-0,2.363l2.362,-0l0,2.362l2.362,-0l0,2.362l2.362,0l0,4.724l-4.724,0l0,-2.362l-2.362,0l-0,-2.362l-2.362,0l-0,-2.362l-2.363,-0l0,18.897Z" style="fill-rule:nonzero;"/></svg>